<mxfile host="Electron" modified="2024-04-12T10:21:02.464Z" agent="Mozilla/5.0 (Macintosh; Intel Mac OS X 10_15_7) AppleWebKit/537.36 (KHTML, like Gecko) draw.io/24.1.0 Chrome/120.0.6099.109 Electron/28.1.0 Safari/537.36" etag="bXULUn2g_QutiSGVvaJu" version="24.1.0" type="device">
  <diagram name="Page-1" id="XKT3XCrR67CI09IBuy3l">
    <mxGraphModel dx="2608" dy="727" grid="1" gridSize="10" guides="1" tooltips="1" connect="1" arrows="1" fold="1" page="1" pageScale="1" pageWidth="1654" pageHeight="1169" math="0" shadow="0">
      <root>
        <mxCell id="0" />
        <mxCell id="1" parent="0" />
        <mxCell id="l6fAtrB58Q827878JFEg-26" style="edgeStyle=orthogonalEdgeStyle;rounded=0;orthogonalLoop=1;jettySize=auto;html=1;" parent="1" source="l6fAtrB58Q827878JFEg-1" target="l6fAtrB58Q827878JFEg-24" edge="1">
          <mxGeometry relative="1" as="geometry" />
        </mxCell>
        <mxCell id="l6fAtrB58Q827878JFEg-70" style="rounded=0;orthogonalLoop=1;jettySize=auto;html=1;entryX=1;entryY=0.5;entryDx=0;entryDy=0;" parent="1" source="l6fAtrB58Q827878JFEg-1" target="l6fAtrB58Q827878JFEg-29" edge="1">
          <mxGeometry relative="1" as="geometry" />
        </mxCell>
        <mxCell id="k7sqr2218_RsV7TlknLN-2" value="1" style="edgeLabel;html=1;align=center;verticalAlign=middle;resizable=0;points=[];" parent="l6fAtrB58Q827878JFEg-70" vertex="1" connectable="0">
          <mxGeometry x="0.9074" y="-2" relative="1" as="geometry">
            <mxPoint x="7" y="-4" as="offset" />
          </mxGeometry>
        </mxCell>
        <mxCell id="l6fAtrB58Q827878JFEg-72" style="rounded=0;orthogonalLoop=1;jettySize=auto;html=1;entryX=1;entryY=0.5;entryDx=0;entryDy=0;" parent="1" source="l6fAtrB58Q827878JFEg-1" target="l6fAtrB58Q827878JFEg-32" edge="1">
          <mxGeometry relative="1" as="geometry" />
        </mxCell>
        <mxCell id="k7sqr2218_RsV7TlknLN-4" value="1" style="edgeLabel;html=1;align=center;verticalAlign=middle;resizable=0;points=[];" parent="l6fAtrB58Q827878JFEg-72" vertex="1" connectable="0">
          <mxGeometry x="0.8713" y="-2" relative="1" as="geometry">
            <mxPoint x="-1" y="-7" as="offset" />
          </mxGeometry>
        </mxCell>
        <mxCell id="l6fAtrB58Q827878JFEg-74" style="rounded=0;orthogonalLoop=1;jettySize=auto;html=1;entryX=1;entryY=0.5;entryDx=0;entryDy=0;" parent="1" source="l6fAtrB58Q827878JFEg-1" target="l6fAtrB58Q827878JFEg-28" edge="1">
          <mxGeometry relative="1" as="geometry" />
        </mxCell>
        <mxCell id="k7sqr2218_RsV7TlknLN-5" value="1" style="edgeLabel;html=1;align=center;verticalAlign=middle;resizable=0;points=[];" parent="l6fAtrB58Q827878JFEg-74" vertex="1" connectable="0">
          <mxGeometry x="0.8673" y="-4" relative="1" as="geometry">
            <mxPoint x="-3" y="-6" as="offset" />
          </mxGeometry>
        </mxCell>
        <mxCell id="l6fAtrB58Q827878JFEg-75" style="rounded=0;orthogonalLoop=1;jettySize=auto;html=1;entryX=1;entryY=0.5;entryDx=0;entryDy=0;" parent="1" source="l6fAtrB58Q827878JFEg-1" target="l6fAtrB58Q827878JFEg-31" edge="1">
          <mxGeometry relative="1" as="geometry" />
        </mxCell>
        <mxCell id="k7sqr2218_RsV7TlknLN-6" value="1" style="edgeLabel;html=1;align=center;verticalAlign=middle;resizable=0;points=[];" parent="l6fAtrB58Q827878JFEg-75" vertex="1" connectable="0">
          <mxGeometry x="0.8355" y="3" relative="1" as="geometry">
            <mxPoint x="-9" y="-9" as="offset" />
          </mxGeometry>
        </mxCell>
        <mxCell id="l6fAtrB58Q827878JFEg-76" style="rounded=0;orthogonalLoop=1;jettySize=auto;html=1;entryX=1;entryY=0.5;entryDx=0;entryDy=0;" parent="1" source="l6fAtrB58Q827878JFEg-1" target="l6fAtrB58Q827878JFEg-27" edge="1">
          <mxGeometry relative="1" as="geometry" />
        </mxCell>
        <mxCell id="k7sqr2218_RsV7TlknLN-7" value="1" style="edgeLabel;html=1;align=center;verticalAlign=middle;resizable=0;points=[];" parent="l6fAtrB58Q827878JFEg-76" vertex="1" connectable="0">
          <mxGeometry x="0.9058" y="-1" relative="1" as="geometry">
            <mxPoint x="1" y="-8" as="offset" />
          </mxGeometry>
        </mxCell>
        <mxCell id="l6fAtrB58Q827878JFEg-77" style="edgeStyle=orthogonalEdgeStyle;rounded=0;orthogonalLoop=1;jettySize=auto;html=1;exitX=0.75;exitY=1;exitDx=0;exitDy=0;" parent="1" source="l6fAtrB58Q827878JFEg-1" edge="1">
          <mxGeometry relative="1" as="geometry">
            <mxPoint x="520" y="710" as="targetPoint" />
            <Array as="points">
              <mxPoint x="-400" y="660" />
              <mxPoint x="-400" y="710" />
            </Array>
          </mxGeometry>
        </mxCell>
        <mxCell id="k7sqr2218_RsV7TlknLN-21" value="*" style="edgeLabel;html=1;align=center;verticalAlign=middle;resizable=0;points=[];labelBackgroundColor=none;" parent="l6fAtrB58Q827878JFEg-77" vertex="1" connectable="0">
          <mxGeometry x="0.9641" relative="1" as="geometry">
            <mxPoint x="1" y="8" as="offset" />
          </mxGeometry>
        </mxCell>
        <mxCell id="l6fAtrB58Q827878JFEg-79" style="edgeStyle=orthogonalEdgeStyle;rounded=0;orthogonalLoop=1;jettySize=auto;html=1;entryX=0;entryY=0.5;entryDx=0;entryDy=0;" parent="1" source="l6fAtrB58Q827878JFEg-1" target="l6fAtrB58Q827878JFEg-38" edge="1">
          <mxGeometry relative="1" as="geometry" />
        </mxCell>
        <mxCell id="k7sqr2218_RsV7TlknLN-22" value="1" style="edgeLabel;html=1;align=center;verticalAlign=middle;resizable=0;points=[];" parent="l6fAtrB58Q827878JFEg-79" vertex="1" connectable="0">
          <mxGeometry x="0.7407" relative="1" as="geometry">
            <mxPoint x="8" y="-10" as="offset" />
          </mxGeometry>
        </mxCell>
        <mxCell id="l6fAtrB58Q827878JFEg-104" style="rounded=0;orthogonalLoop=1;jettySize=auto;html=1;entryX=1;entryY=0.5;entryDx=0;entryDy=0;" parent="1" source="l6fAtrB58Q827878JFEg-1" target="l6fAtrB58Q827878JFEg-33" edge="1">
          <mxGeometry relative="1" as="geometry" />
        </mxCell>
        <mxCell id="k7sqr2218_RsV7TlknLN-3" value="1" style="edgeLabel;html=1;align=center;verticalAlign=middle;resizable=0;points=[];" parent="l6fAtrB58Q827878JFEg-104" vertex="1" connectable="0">
          <mxGeometry x="0.8872" y="-5" relative="1" as="geometry">
            <mxPoint x="2" y="-3" as="offset" />
          </mxGeometry>
        </mxCell>
        <mxCell id="l6fAtrB58Q827878JFEg-128" style="rounded=0;orthogonalLoop=1;jettySize=auto;html=1;entryX=0;entryY=0.5;entryDx=0;entryDy=0;edgeStyle=orthogonalEdgeStyle;exitX=0.75;exitY=0;exitDx=0;exitDy=0;" parent="1" source="l6fAtrB58Q827878JFEg-1" target="l6fAtrB58Q827878JFEg-35" edge="1">
          <mxGeometry relative="1" as="geometry" />
        </mxCell>
        <mxCell id="k7sqr2218_RsV7TlknLN-24" value="1" style="edgeLabel;html=1;align=center;verticalAlign=middle;resizable=0;points=[];" parent="l6fAtrB58Q827878JFEg-128" vertex="1" connectable="0">
          <mxGeometry x="0.9262" y="3" relative="1" as="geometry">
            <mxPoint x="28" y="-7" as="offset" />
          </mxGeometry>
        </mxCell>
        <mxCell id="k7sqr2218_RsV7TlknLN-18" style="edgeStyle=orthogonalEdgeStyle;rounded=0;orthogonalLoop=1;jettySize=auto;html=1;" parent="1" target="NS87SEjxT8RGoGRDJgCP-1" edge="1">
          <mxGeometry relative="1" as="geometry">
            <mxPoint x="-451" y="660" as="sourcePoint" />
            <mxPoint x="-453.9473684210525" y="770" as="targetPoint" />
            <Array as="points">
              <mxPoint x="-430" y="660" />
              <mxPoint x="-430" y="795" />
            </Array>
          </mxGeometry>
        </mxCell>
        <mxCell id="k7sqr2218_RsV7TlknLN-20" value="1" style="edgeLabel;html=1;align=center;verticalAlign=middle;resizable=0;points=[];" parent="k7sqr2218_RsV7TlknLN-18" vertex="1" connectable="0">
          <mxGeometry x="0.6875" y="1" relative="1" as="geometry">
            <mxPoint x="27" y="-14" as="offset" />
          </mxGeometry>
        </mxCell>
        <mxCell id="k7sqr2218_RsV7TlknLN-42" style="edgeStyle=orthogonalEdgeStyle;rounded=0;orthogonalLoop=1;jettySize=auto;html=1;entryX=0.25;entryY=0;entryDx=0;entryDy=0;" parent="1" source="l6fAtrB58Q827878JFEg-1" target="l6fAtrB58Q827878JFEg-34" edge="1">
          <mxGeometry relative="1" as="geometry">
            <Array as="points">
              <mxPoint x="-452" y="868" />
            </Array>
          </mxGeometry>
        </mxCell>
        <mxCell id="l6fAtrB58Q827878JFEg-1" value="«Entity»&lt;br&gt;&lt;b&gt;JobOpening&lt;/b&gt;" style="html=1;whiteSpace=wrap;" parent="1" vertex="1">
          <mxGeometry x="-480" y="610" width="110" height="50" as="geometry" />
        </mxCell>
        <mxCell id="l6fAtrB58Q827878JFEg-13" style="rounded=0;orthogonalLoop=1;jettySize=auto;html=1;entryX=1;entryY=0.5;entryDx=0;entryDy=0;" parent="1" source="l6fAtrB58Q827878JFEg-2" target="l6fAtrB58Q827878JFEg-10" edge="1">
          <mxGeometry relative="1" as="geometry" />
        </mxCell>
        <mxCell id="k7sqr2218_RsV7TlknLN-17" value="1" style="edgeLabel;html=1;align=center;verticalAlign=middle;resizable=0;points=[];" parent="l6fAtrB58Q827878JFEg-13" vertex="1" connectable="0">
          <mxGeometry x="0.6422" y="-1" relative="1" as="geometry">
            <mxPoint as="offset" />
          </mxGeometry>
        </mxCell>
        <mxCell id="l6fAtrB58Q827878JFEg-14" style="rounded=0;orthogonalLoop=1;jettySize=auto;html=1;entryX=1;entryY=0.5;entryDx=0;entryDy=0;" parent="1" source="l6fAtrB58Q827878JFEg-2" target="l6fAtrB58Q827878JFEg-11" edge="1">
          <mxGeometry relative="1" as="geometry" />
        </mxCell>
        <mxCell id="k7sqr2218_RsV7TlknLN-16" value="1" style="edgeLabel;html=1;align=center;verticalAlign=middle;resizable=0;points=[];" parent="l6fAtrB58Q827878JFEg-14" vertex="1" connectable="0">
          <mxGeometry x="0.5444" y="-1" relative="1" as="geometry">
            <mxPoint as="offset" />
          </mxGeometry>
        </mxCell>
        <mxCell id="l6fAtrB58Q827878JFEg-15" style="rounded=0;orthogonalLoop=1;jettySize=auto;html=1;entryX=1;entryY=0.5;entryDx=0;entryDy=0;" parent="1" source="l6fAtrB58Q827878JFEg-2" target="l6fAtrB58Q827878JFEg-12" edge="1">
          <mxGeometry relative="1" as="geometry" />
        </mxCell>
        <mxCell id="k7sqr2218_RsV7TlknLN-15" value="1" style="edgeLabel;html=1;align=center;verticalAlign=middle;resizable=0;points=[];" parent="l6fAtrB58Q827878JFEg-15" vertex="1" connectable="0">
          <mxGeometry x="0.6894" y="-3" relative="1" as="geometry">
            <mxPoint as="offset" />
          </mxGeometry>
        </mxCell>
        <mxCell id="l6fAtrB58Q827878JFEg-46" style="rounded=0;orthogonalLoop=1;jettySize=auto;html=1;exitX=0.75;exitY=1;exitDx=0;exitDy=0;entryX=0.25;entryY=0;entryDx=0;entryDy=0;" parent="1" source="l6fAtrB58Q827878JFEg-2" target="l6fAtrB58Q827878JFEg-3" edge="1">
          <mxGeometry relative="1" as="geometry" />
        </mxCell>
        <mxCell id="k7sqr2218_RsV7TlknLN-27" value="*" style="edgeLabel;html=1;align=center;verticalAlign=middle;resizable=0;points=[];" parent="l6fAtrB58Q827878JFEg-46" vertex="1" connectable="0">
          <mxGeometry x="0.9348" y="1" relative="1" as="geometry">
            <mxPoint x="7" y="-2" as="offset" />
          </mxGeometry>
        </mxCell>
        <mxCell id="l6fAtrB58Q827878JFEg-2" value="«Entity»&lt;br&gt;&lt;b&gt;Candidate&lt;/b&gt;" style="html=1;whiteSpace=wrap;" parent="1" vertex="1">
          <mxGeometry x="125" y="180" width="110" height="50" as="geometry" />
        </mxCell>
        <mxCell id="l6fAtrB58Q827878JFEg-42" style="rounded=0;orthogonalLoop=1;jettySize=auto;html=1;entryX=0;entryY=0.5;entryDx=0;entryDy=0;" parent="1" source="l6fAtrB58Q827878JFEg-3" target="l6fAtrB58Q827878JFEg-37" edge="1">
          <mxGeometry relative="1" as="geometry" />
        </mxCell>
        <mxCell id="k7sqr2218_RsV7TlknLN-33" value="*" style="edgeLabel;html=1;align=center;verticalAlign=middle;resizable=0;points=[];" parent="l6fAtrB58Q827878JFEg-42" vertex="1" connectable="0">
          <mxGeometry x="0.8166" y="2" relative="1" as="geometry">
            <mxPoint x="-1" y="-6" as="offset" />
          </mxGeometry>
        </mxCell>
        <mxCell id="l6fAtrB58Q827878JFEg-43" style="rounded=0;orthogonalLoop=1;jettySize=auto;html=1;exitX=1;exitY=0.75;exitDx=0;exitDy=0;" parent="1" source="l6fAtrB58Q827878JFEg-3" target="l6fAtrB58Q827878JFEg-36" edge="1">
          <mxGeometry relative="1" as="geometry" />
        </mxCell>
        <mxCell id="k7sqr2218_RsV7TlknLN-34" value="1" style="edgeLabel;html=1;align=center;verticalAlign=middle;resizable=0;points=[];" parent="l6fAtrB58Q827878JFEg-43" vertex="1" connectable="0">
          <mxGeometry x="0.7955" y="3" relative="1" as="geometry">
            <mxPoint x="1" y="-4" as="offset" />
          </mxGeometry>
        </mxCell>
        <mxCell id="l6fAtrB58Q827878JFEg-53" style="edgeStyle=orthogonalEdgeStyle;rounded=0;orthogonalLoop=1;jettySize=auto;html=1;" parent="1" source="l6fAtrB58Q827878JFEg-3" target="l6fAtrB58Q827878JFEg-49" edge="1">
          <mxGeometry relative="1" as="geometry">
            <Array as="points">
              <mxPoint x="580" y="780" />
              <mxPoint x="700" y="780" />
            </Array>
          </mxGeometry>
        </mxCell>
        <mxCell id="k7sqr2218_RsV7TlknLN-32" value="1" style="edgeLabel;html=1;align=center;verticalAlign=middle;resizable=0;points=[];" parent="l6fAtrB58Q827878JFEg-53" vertex="1" connectable="0">
          <mxGeometry x="0.8271" y="-3" relative="1" as="geometry">
            <mxPoint x="8" as="offset" />
          </mxGeometry>
        </mxCell>
        <mxCell id="l6fAtrB58Q827878JFEg-96" style="edgeStyle=orthogonalEdgeStyle;rounded=0;orthogonalLoop=1;jettySize=auto;html=1;" parent="1" source="l6fAtrB58Q827878JFEg-3" target="l6fAtrB58Q827878JFEg-50" edge="1">
          <mxGeometry relative="1" as="geometry">
            <Array as="points">
              <mxPoint x="560" y="860" />
              <mxPoint x="560" y="860" />
            </Array>
          </mxGeometry>
        </mxCell>
        <mxCell id="k7sqr2218_RsV7TlknLN-31" value="1" style="edgeLabel;html=1;align=center;verticalAlign=middle;resizable=0;points=[];" parent="l6fAtrB58Q827878JFEg-96" vertex="1" connectable="0">
          <mxGeometry x="0.7978" y="-2" relative="1" as="geometry">
            <mxPoint x="7" y="2" as="offset" />
          </mxGeometry>
        </mxCell>
        <mxCell id="l6fAtrB58Q827878JFEg-103" style="rounded=0;orthogonalLoop=1;jettySize=auto;html=1;entryX=1;entryY=0.5;entryDx=0;entryDy=0;" parent="1" source="l6fAtrB58Q827878JFEg-3" target="l6fAtrB58Q827878JFEg-91" edge="1">
          <mxGeometry relative="1" as="geometry" />
        </mxCell>
        <mxCell id="k7sqr2218_RsV7TlknLN-28" value="1" style="edgeLabel;html=1;align=center;verticalAlign=middle;resizable=0;points=[];" parent="l6fAtrB58Q827878JFEg-103" vertex="1" connectable="0">
          <mxGeometry x="0.7605" y="3" relative="1" as="geometry">
            <mxPoint x="7" y="8" as="offset" />
          </mxGeometry>
        </mxCell>
        <mxCell id="l6fAtrB58Q827878JFEg-119" style="edgeStyle=orthogonalEdgeStyle;rounded=0;orthogonalLoop=1;jettySize=auto;html=1;entryX=0.5;entryY=0;entryDx=0;entryDy=0;" parent="1" source="l6fAtrB58Q827878JFEg-3" target="l6fAtrB58Q827878JFEg-118" edge="1">
          <mxGeometry relative="1" as="geometry">
            <Array as="points">
              <mxPoint x="610" y="750" />
              <mxPoint x="890" y="750" />
            </Array>
          </mxGeometry>
        </mxCell>
        <mxCell id="k7sqr2218_RsV7TlknLN-37" value="1" style="edgeLabel;html=1;align=center;verticalAlign=middle;resizable=0;points=[];" parent="l6fAtrB58Q827878JFEg-119" vertex="1" connectable="0">
          <mxGeometry x="0.9072" relative="1" as="geometry">
            <mxPoint x="7" y="6" as="offset" />
          </mxGeometry>
        </mxCell>
        <mxCell id="l6fAtrB58Q827878JFEg-3" value="«Entity»&lt;br&gt;&lt;b&gt;JobApplication&lt;/b&gt;" style="html=1;whiteSpace=wrap;" parent="1" vertex="1">
          <mxGeometry x="520" y="670" width="110" height="50" as="geometry" />
        </mxCell>
        <mxCell id="l6fAtrB58Q827878JFEg-10" value="«Value Object»&lt;br&gt;&lt;b&gt;Name&lt;/b&gt;" style="html=1;whiteSpace=wrap;" parent="1" vertex="1">
          <mxGeometry x="-55" y="100" width="110" height="50" as="geometry" />
        </mxCell>
        <mxCell id="l6fAtrB58Q827878JFEg-11" value="«Value Object»&lt;br&gt;&lt;b&gt;Email&lt;/b&gt;" style="html=1;whiteSpace=wrap;" parent="1" vertex="1">
          <mxGeometry x="-55" y="180" width="110" height="50" as="geometry" />
        </mxCell>
        <mxCell id="l6fAtrB58Q827878JFEg-12" value="«Value Object»&lt;br&gt;&lt;b&gt;PhoneNumber&lt;/b&gt;" style="html=1;whiteSpace=wrap;" parent="1" vertex="1">
          <mxGeometry x="-55" y="260" width="110" height="50" as="geometry" />
        </mxCell>
        <mxCell id="l6fAtrB58Q827878JFEg-19" style="edgeStyle=orthogonalEdgeStyle;rounded=0;orthogonalLoop=1;jettySize=auto;html=1;entryX=1;entryY=0.5;entryDx=0;entryDy=0;" parent="1" source="l6fAtrB58Q827878JFEg-16" target="l6fAtrB58Q827878JFEg-18" edge="1">
          <mxGeometry relative="1" as="geometry" />
        </mxCell>
        <mxCell id="k7sqr2218_RsV7TlknLN-8" value="1" style="edgeLabel;html=1;align=center;verticalAlign=middle;resizable=0;points=[];" parent="l6fAtrB58Q827878JFEg-19" vertex="1" connectable="0">
          <mxGeometry x="0.5068" y="1" relative="1" as="geometry">
            <mxPoint x="-4" y="-11" as="offset" />
          </mxGeometry>
        </mxCell>
        <mxCell id="l6fAtrB58Q827878JFEg-20" style="edgeStyle=orthogonalEdgeStyle;rounded=0;orthogonalLoop=1;jettySize=auto;html=1;" parent="1" source="l6fAtrB58Q827878JFEg-16" target="l6fAtrB58Q827878JFEg-17" edge="1">
          <mxGeometry relative="1" as="geometry" />
        </mxCell>
        <mxCell id="k7sqr2218_RsV7TlknLN-9" value="1" style="edgeLabel;html=1;align=center;verticalAlign=middle;resizable=0;points=[];" parent="l6fAtrB58Q827878JFEg-20" vertex="1" connectable="0">
          <mxGeometry x="0.4596" y="-1" relative="1" as="geometry">
            <mxPoint x="8" y="-10" as="offset" />
          </mxGeometry>
        </mxCell>
        <mxCell id="l6fAtrB58Q827878JFEg-25" style="edgeStyle=orthogonalEdgeStyle;rounded=0;orthogonalLoop=1;jettySize=auto;html=1;" parent="1" source="l6fAtrB58Q827878JFEg-16" target="l6fAtrB58Q827878JFEg-24" edge="1">
          <mxGeometry relative="1" as="geometry" />
        </mxCell>
        <mxCell id="k7sqr2218_RsV7TlknLN-11" value="1" style="edgeLabel;html=1;align=center;verticalAlign=middle;resizable=0;points=[];" parent="l6fAtrB58Q827878JFEg-25" vertex="1" connectable="0">
          <mxGeometry x="0.7228" y="2" relative="1" as="geometry">
            <mxPoint x="5" y="3" as="offset" />
          </mxGeometry>
        </mxCell>
        <mxCell id="l6fAtrB58Q827878JFEg-16" value="«Entity»&lt;br&gt;&lt;b&gt;Client&lt;/b&gt;" style="html=1;whiteSpace=wrap;" parent="1" vertex="1">
          <mxGeometry x="-480" y="180" width="110" height="50" as="geometry" />
        </mxCell>
        <mxCell id="l6fAtrB58Q827878JFEg-21" style="rounded=0;orthogonalLoop=1;jettySize=auto;html=1;entryX=0;entryY=0.5;entryDx=0;entryDy=0;" parent="1" source="l6fAtrB58Q827878JFEg-17" target="l6fAtrB58Q827878JFEg-10" edge="1">
          <mxGeometry relative="1" as="geometry" />
        </mxCell>
        <mxCell id="k7sqr2218_RsV7TlknLN-12" value="1" style="edgeLabel;html=1;align=center;verticalAlign=middle;resizable=0;points=[];" parent="l6fAtrB58Q827878JFEg-21" vertex="1" connectable="0">
          <mxGeometry x="0.6611" y="2" relative="1" as="geometry">
            <mxPoint y="1" as="offset" />
          </mxGeometry>
        </mxCell>
        <mxCell id="l6fAtrB58Q827878JFEg-22" style="rounded=0;orthogonalLoop=1;jettySize=auto;html=1;" parent="1" source="l6fAtrB58Q827878JFEg-17" target="l6fAtrB58Q827878JFEg-11" edge="1">
          <mxGeometry relative="1" as="geometry" />
        </mxCell>
        <mxCell id="k7sqr2218_RsV7TlknLN-13" value="1" style="edgeLabel;html=1;align=center;verticalAlign=middle;resizable=0;points=[];" parent="l6fAtrB58Q827878JFEg-22" vertex="1" connectable="0">
          <mxGeometry x="0.6322" y="-4" relative="1" as="geometry">
            <mxPoint as="offset" />
          </mxGeometry>
        </mxCell>
        <mxCell id="l6fAtrB58Q827878JFEg-23" style="rounded=0;orthogonalLoop=1;jettySize=auto;html=1;entryX=0;entryY=0.5;entryDx=0;entryDy=0;" parent="1" source="l6fAtrB58Q827878JFEg-17" target="l6fAtrB58Q827878JFEg-12" edge="1">
          <mxGeometry relative="1" as="geometry" />
        </mxCell>
        <mxCell id="k7sqr2218_RsV7TlknLN-14" value="1" style="edgeLabel;html=1;align=center;verticalAlign=middle;resizable=0;points=[];" parent="l6fAtrB58Q827878JFEg-23" vertex="1" connectable="0">
          <mxGeometry x="0.7069" y="5" relative="1" as="geometry">
            <mxPoint y="1" as="offset" />
          </mxGeometry>
        </mxCell>
        <mxCell id="l6fAtrB58Q827878JFEg-17" value="«Value Object»&lt;br&gt;&lt;b&gt;ClientRepresentative&lt;/b&gt;" style="html=1;whiteSpace=wrap;" parent="1" vertex="1">
          <mxGeometry x="-280" y="180" width="140" height="50" as="geometry" />
        </mxCell>
        <mxCell id="l6fAtrB58Q827878JFEg-18" value="«Value Object»&lt;br&gt;&lt;b&gt;Code&lt;/b&gt;" style="html=1;whiteSpace=wrap;" parent="1" vertex="1">
          <mxGeometry x="-660" y="180" width="110" height="50" as="geometry" />
        </mxCell>
        <mxCell id="l6fAtrB58Q827878JFEg-24" value="«Value Object»&lt;br&gt;&lt;b&gt;Address&lt;/b&gt;" style="html=1;whiteSpace=wrap;" parent="1" vertex="1">
          <mxGeometry x="-480" y="380" width="110" height="50" as="geometry" />
        </mxCell>
        <mxCell id="l6fAtrB58Q827878JFEg-27" value="«Value Object»&lt;br&gt;&lt;b&gt;NrVacancy&lt;/b&gt;" style="html=1;whiteSpace=wrap;" parent="1" vertex="1">
          <mxGeometry x="-850" y="750" width="110" height="50" as="geometry" />
        </mxCell>
        <mxCell id="l6fAtrB58Q827878JFEg-28" value="«Value Object»&lt;br&gt;&lt;b&gt;Function&lt;/b&gt;" style="html=1;whiteSpace=wrap;" parent="1" vertex="1">
          <mxGeometry x="-850" y="630" width="110" height="50" as="geometry" />
        </mxCell>
        <mxCell id="l6fAtrB58Q827878JFEg-29" value="«Value Object»&lt;br&gt;&lt;b&gt;WorkingMode&lt;/b&gt;" style="html=1;whiteSpace=wrap;" parent="1" vertex="1">
          <mxGeometry x="-850" y="460" width="110" height="50" as="geometry" />
        </mxCell>
        <mxCell id="l6fAtrB58Q827878JFEg-31" value="«Value Object»&lt;br&gt;&lt;b&gt;ContractType&lt;/b&gt;" style="html=1;whiteSpace=wrap;" parent="1" vertex="1">
          <mxGeometry x="-850" y="690" width="110" height="50" as="geometry" />
        </mxCell>
        <mxCell id="l6fAtrB58Q827878JFEg-32" value="«Value Object»&lt;br&gt;&lt;b&gt;JobReference&lt;/b&gt;" style="html=1;whiteSpace=wrap;" parent="1" vertex="1">
          <mxGeometry x="-850" y="570" width="110" height="50" as="geometry" />
        </mxCell>
        <mxCell id="l6fAtrB58Q827878JFEg-33" value="«Value Object»&lt;br&gt;&lt;b&gt;Description&lt;/b&gt;" style="html=1;whiteSpace=wrap;" parent="1" vertex="1">
          <mxGeometry x="-850" y="515" width="110" height="50" as="geometry" />
        </mxCell>
        <mxCell id="l6fAtrB58Q827878JFEg-88" style="edgeStyle=orthogonalEdgeStyle;rounded=0;orthogonalLoop=1;jettySize=auto;html=1;" parent="1" source="l6fAtrB58Q827878JFEg-34" target="l6fAtrB58Q827878JFEg-87" edge="1">
          <mxGeometry relative="1" as="geometry">
            <Array as="points">
              <mxPoint x="-360" y="1160" />
              <mxPoint x="-283" y="1160" />
            </Array>
          </mxGeometry>
        </mxCell>
        <mxCell id="k7sqr2218_RsV7TlknLN-41" value="1" style="edgeLabel;html=1;align=center;verticalAlign=middle;resizable=0;points=[];" parent="l6fAtrB58Q827878JFEg-88" vertex="1" connectable="0">
          <mxGeometry x="0.7353" relative="1" as="geometry">
            <mxPoint x="-7" as="offset" />
          </mxGeometry>
        </mxCell>
        <mxCell id="l6fAtrB58Q827878JFEg-89" style="edgeStyle=orthogonalEdgeStyle;rounded=0;orthogonalLoop=1;jettySize=auto;html=1;" parent="1" source="l6fAtrB58Q827878JFEg-34" target="l6fAtrB58Q827878JFEg-84" edge="1">
          <mxGeometry relative="1" as="geometry">
            <Array as="points">
              <mxPoint x="-450" y="1160" />
              <mxPoint x="-547" y="1160" />
            </Array>
          </mxGeometry>
        </mxCell>
        <mxCell id="k7sqr2218_RsV7TlknLN-40" value="1" style="edgeLabel;html=1;align=center;verticalAlign=middle;resizable=0;points=[];" parent="l6fAtrB58Q827878JFEg-89" vertex="1" connectable="0">
          <mxGeometry x="0.8166" y="-1" relative="1" as="geometry">
            <mxPoint x="8" as="offset" />
          </mxGeometry>
        </mxCell>
        <mxCell id="l6fAtrB58Q827878JFEg-34" value="«Entity»&lt;br&gt;&lt;b&gt;InterviewModelSpecfication&lt;/b&gt;" style="html=1;whiteSpace=wrap;" parent="1" vertex="1">
          <mxGeometry x="-497.5" y="1075" width="180" height="50" as="geometry" />
        </mxCell>
        <mxCell id="l6fAtrB58Q827878JFEg-112" style="rounded=0;orthogonalLoop=1;jettySize=auto;html=1;entryX=0.75;entryY=1;entryDx=0;entryDy=0;" parent="1" source="l6fAtrB58Q827878JFEg-35" target="l6fAtrB58Q827878JFEg-47" edge="1">
          <mxGeometry relative="1" as="geometry" />
        </mxCell>
        <mxCell id="k7sqr2218_RsV7TlknLN-25" value="1" style="edgeLabel;html=1;align=center;verticalAlign=middle;resizable=0;points=[];" parent="l6fAtrB58Q827878JFEg-112" vertex="1" connectable="0">
          <mxGeometry x="0.6096" relative="1" as="geometry">
            <mxPoint x="12" y="-2" as="offset" />
          </mxGeometry>
        </mxCell>
        <mxCell id="l6fAtrB58Q827878JFEg-113" style="rounded=0;orthogonalLoop=1;jettySize=auto;html=1;entryX=0.25;entryY=1;entryDx=0;entryDy=0;" parent="1" source="l6fAtrB58Q827878JFEg-35" target="l6fAtrB58Q827878JFEg-48" edge="1">
          <mxGeometry relative="1" as="geometry" />
        </mxCell>
        <mxCell id="k7sqr2218_RsV7TlknLN-26" value="1" style="edgeLabel;html=1;align=center;verticalAlign=middle;resizable=0;points=[];" parent="l6fAtrB58Q827878JFEg-113" vertex="1" connectable="0">
          <mxGeometry x="0.5925" y="4" relative="1" as="geometry">
            <mxPoint x="-9" y="1" as="offset" />
          </mxGeometry>
        </mxCell>
        <mxCell id="l6fAtrB58Q827878JFEg-35" value="«Entity»&lt;br&gt;&lt;b&gt;RequirementSpecfication&lt;/b&gt;" style="html=1;whiteSpace=wrap;" parent="1" vertex="1">
          <mxGeometry x="717" y="480" width="180" height="50" as="geometry" />
        </mxCell>
        <mxCell id="l6fAtrB58Q827878JFEg-78" style="edgeStyle=orthogonalEdgeStyle;rounded=0;orthogonalLoop=1;jettySize=auto;html=1;entryX=1;entryY=0.5;entryDx=0;entryDy=0;dashed=1;" parent="1" source="l6fAtrB58Q827878JFEg-36" target="l6fAtrB58Q827878JFEg-49" edge="1">
          <mxGeometry relative="1" as="geometry" />
        </mxCell>
        <mxCell id="l6fAtrB58Q827878JFEg-36" value="«Value Object»&lt;br&gt;&lt;b&gt;JobApplicationState&lt;/b&gt;" style="html=1;whiteSpace=wrap;" parent="1" vertex="1">
          <mxGeometry x="780" y="680" width="140" height="50" as="geometry" />
        </mxCell>
        <mxCell id="l6fAtrB58Q827878JFEg-37" value="«Value Object»&lt;br&gt;&lt;b&gt;JobApplicationFile&lt;/b&gt;" style="html=1;whiteSpace=wrap;" parent="1" vertex="1">
          <mxGeometry x="780" y="610" width="140" height="50" as="geometry" />
        </mxCell>
        <mxCell id="l6fAtrB58Q827878JFEg-129" style="edgeStyle=orthogonalEdgeStyle;rounded=0;orthogonalLoop=1;jettySize=auto;html=1;" parent="1" source="l6fAtrB58Q827878JFEg-38" edge="1">
          <mxGeometry relative="1" as="geometry">
            <mxPoint x="520" y="680" as="targetPoint" />
            <Array as="points">
              <mxPoint x="225" y="575" />
              <mxPoint x="225" y="680" />
              <mxPoint x="520" y="680" />
            </Array>
          </mxGeometry>
        </mxCell>
        <mxCell id="k7sqr2218_RsV7TlknLN-23" value="*" style="edgeLabel;html=1;align=center;verticalAlign=middle;resizable=0;points=[];labelBackgroundColor=none;" parent="l6fAtrB58Q827878JFEg-129" vertex="1" connectable="0">
          <mxGeometry x="0.9435" y="4" relative="1" as="geometry">
            <mxPoint x="3" as="offset" />
          </mxGeometry>
        </mxCell>
        <mxCell id="l6fAtrB58Q827878JFEg-38" value="«Value Object»&lt;br&gt;&lt;b&gt;Rank&lt;/b&gt;" style="html=1;whiteSpace=wrap;" parent="1" vertex="1">
          <mxGeometry x="-210" y="550" width="140" height="50" as="geometry" />
        </mxCell>
        <mxCell id="l6fAtrB58Q827878JFEg-47" value="«Value Object»&lt;br&gt;&lt;b&gt;RequirementSpecficationJarFile&lt;/b&gt;" style="html=1;whiteSpace=wrap;" parent="1" vertex="1">
          <mxGeometry x="540" y="370" width="250" height="50" as="geometry" />
        </mxCell>
        <mxCell id="l6fAtrB58Q827878JFEg-48" value="«Value Object»&lt;br&gt;&lt;b&gt;RequirementSpecficationName&lt;/b&gt;" style="html=1;whiteSpace=wrap;" parent="1" vertex="1">
          <mxGeometry x="820" y="370" width="250" height="50" as="geometry" />
        </mxCell>
        <mxCell id="l6fAtrB58Q827878JFEg-49" value="«Value Object»&lt;br&gt;&lt;b&gt;RequirementAnswer&lt;/b&gt;" style="html=1;whiteSpace=wrap;" parent="1" vertex="1">
          <mxGeometry x="620" y="810" width="160" height="50" as="geometry" />
        </mxCell>
        <mxCell id="l6fAtrB58Q827878JFEg-55" value="" style="edgeStyle=orthogonalEdgeStyle;rounded=0;orthogonalLoop=1;jettySize=auto;html=1;" parent="1" source="l6fAtrB58Q827878JFEg-50" target="l6fAtrB58Q827878JFEg-54" edge="1">
          <mxGeometry relative="1" as="geometry" />
        </mxCell>
        <mxCell id="k7sqr2218_RsV7TlknLN-38" value="*" style="edgeLabel;html=1;align=center;verticalAlign=middle;resizable=0;points=[];" parent="l6fAtrB58Q827878JFEg-55" vertex="1" connectable="0">
          <mxGeometry x="0.7588" y="-3" relative="1" as="geometry">
            <mxPoint x="8" as="offset" />
          </mxGeometry>
        </mxCell>
        <mxCell id="l6fAtrB58Q827878JFEg-106" style="edgeStyle=orthogonalEdgeStyle;rounded=0;orthogonalLoop=1;jettySize=auto;html=1;entryX=0.75;entryY=0;entryDx=0;entryDy=0;" parent="1" source="l6fAtrB58Q827878JFEg-50" target="l6fAtrB58Q827878JFEg-105" edge="1">
          <mxGeometry relative="1" as="geometry">
            <Array as="points">
              <mxPoint x="540" y="980" />
              <mxPoint x="510" y="980" />
            </Array>
          </mxGeometry>
        </mxCell>
        <mxCell id="k7sqr2218_RsV7TlknLN-39" value="1" style="edgeLabel;html=1;align=center;verticalAlign=middle;resizable=0;points=[];" parent="l6fAtrB58Q827878JFEg-106" vertex="1" connectable="0">
          <mxGeometry x="0.5564" y="2" relative="1" as="geometry">
            <mxPoint x="-12" as="offset" />
          </mxGeometry>
        </mxCell>
        <mxCell id="l6fAtrB58Q827878JFEg-50" value="«Value Object»&lt;br&gt;&lt;b&gt;InterviewAnswer&lt;/b&gt;" style="html=1;whiteSpace=wrap;" parent="1" vertex="1">
          <mxGeometry x="490" y="910" width="160" height="50" as="geometry" />
        </mxCell>
        <mxCell id="l6fAtrB58Q827878JFEg-54" value="«Value Object»&lt;br&gt;&lt;b&gt;Answer&lt;/b&gt;" style="html=1;whiteSpace=wrap;" parent="1" vertex="1">
          <mxGeometry x="570" y="1000" width="160" height="50" as="geometry" />
        </mxCell>
        <mxCell id="l6fAtrB58Q827878JFEg-66" value="Candidate" style="shape=umlFrame;whiteSpace=wrap;html=1;pointerEvents=0;width=100;height=30;align=center;swimlaneFillColor=none;" parent="1" vertex="1">
          <mxGeometry x="-125" y="40" width="400" height="290" as="geometry" />
        </mxCell>
        <mxCell id="l6fAtrB58Q827878JFEg-67" value="Client" style="shape=umlFrame;whiteSpace=wrap;html=1;pointerEvents=0;width=100;height=30;align=center;swimlaneFillColor=none;" parent="1" vertex="1">
          <mxGeometry x="-690" y="90" width="780" height="370" as="geometry" />
        </mxCell>
        <mxCell id="l6fAtrB58Q827878JFEg-83" value="JobApplication" style="shape=umlFrame;whiteSpace=wrap;html=1;pointerEvents=0;width=120;height=40;" parent="1" vertex="1">
          <mxGeometry x="40" y="600" width="1080" height="470" as="geometry" />
        </mxCell>
        <mxCell id="l6fAtrB58Q827878JFEg-84" value="«Value Object»&lt;br&gt;&lt;b&gt;InterviewModelSpecificationJarFile&lt;/b&gt;" style="html=1;whiteSpace=wrap;" parent="1" vertex="1">
          <mxGeometry x="-652.5" y="1195" width="210" height="50" as="geometry" />
        </mxCell>
        <mxCell id="l6fAtrB58Q827878JFEg-85" value="InterviewModel" style="shape=umlFrame;whiteSpace=wrap;html=1;pointerEvents=0;width=110;height=40;" parent="1" vertex="1">
          <mxGeometry x="-687.5" y="1030" width="555" height="250" as="geometry" />
        </mxCell>
        <mxCell id="l6fAtrB58Q827878JFEg-87" value="«Value Object»&lt;br&gt;&lt;b&gt;InterviewModelSpecificationIdentifier&lt;/b&gt;" style="html=1;whiteSpace=wrap;" parent="1" vertex="1">
          <mxGeometry x="-397.5" y="1195" width="230" height="50" as="geometry" />
        </mxCell>
        <mxCell id="l6fAtrB58Q827878JFEg-102" style="edgeStyle=orthogonalEdgeStyle;rounded=0;orthogonalLoop=1;jettySize=auto;html=1;exitX=0.213;exitY=0.97;exitDx=0;exitDy=0;exitPerimeter=0;" parent="1" source="l6fAtrB58Q827878JFEg-91" target="l6fAtrB58Q827878JFEg-34" edge="1">
          <mxGeometry relative="1" as="geometry">
            <Array as="points">
              <mxPoint x="324" y="960" />
              <mxPoint x="-407" y="960" />
            </Array>
          </mxGeometry>
        </mxCell>
        <mxCell id="l6fAtrB58Q827878JFEg-123" style="rounded=0;orthogonalLoop=1;jettySize=auto;html=1;entryX=1;entryY=0.5;entryDx=0;entryDy=0;exitX=0;exitY=0.25;exitDx=0;exitDy=0;" parent="1" source="l6fAtrB58Q827878JFEg-91" target="l6fAtrB58Q827878JFEg-98" edge="1">
          <mxGeometry relative="1" as="geometry" />
        </mxCell>
        <mxCell id="k7sqr2218_RsV7TlknLN-29" value="1" style="edgeLabel;html=1;align=center;verticalAlign=middle;resizable=0;points=[];" parent="l6fAtrB58Q827878JFEg-123" vertex="1" connectable="0">
          <mxGeometry x="0.3189" y="-2" relative="1" as="geometry">
            <mxPoint x="-12" y="5" as="offset" />
          </mxGeometry>
        </mxCell>
        <mxCell id="l6fAtrB58Q827878JFEg-124" style="rounded=0;orthogonalLoop=1;jettySize=auto;html=1;entryX=1;entryY=0.5;entryDx=0;entryDy=0;exitX=0;exitY=0.75;exitDx=0;exitDy=0;" parent="1" source="l6fAtrB58Q827878JFEg-91" target="l6fAtrB58Q827878JFEg-99" edge="1">
          <mxGeometry relative="1" as="geometry" />
        </mxCell>
        <mxCell id="k7sqr2218_RsV7TlknLN-30" value="1" style="edgeLabel;html=1;align=center;verticalAlign=middle;resizable=0;points=[];" parent="l6fAtrB58Q827878JFEg-124" vertex="1" connectable="0">
          <mxGeometry x="0.2698" relative="1" as="geometry">
            <mxPoint x="-10" y="12" as="offset" />
          </mxGeometry>
        </mxCell>
        <mxCell id="l6fAtrB58Q827878JFEg-91" value="«Value Object»&lt;br&gt;&lt;b&gt;Interview&lt;/b&gt;" style="html=1;whiteSpace=wrap;" parent="1" vertex="1">
          <mxGeometry x="290" y="780" width="160" height="50" as="geometry" />
        </mxCell>
        <mxCell id="l6fAtrB58Q827878JFEg-98" value="«Value Object»&lt;br&gt;&lt;b&gt;Date&lt;/b&gt;" style="html=1;whiteSpace=wrap;" parent="1" vertex="1">
          <mxGeometry x="90" y="740" width="130" height="50" as="geometry" />
        </mxCell>
        <mxCell id="l6fAtrB58Q827878JFEg-99" value="«Value Object»&lt;br&gt;&lt;b&gt;Time&lt;/b&gt;" style="html=1;whiteSpace=wrap;" parent="1" vertex="1">
          <mxGeometry x="90" y="820" width="130" height="50" as="geometry" />
        </mxCell>
        <mxCell id="l6fAtrB58Q827878JFEg-105" value="«Value Object»&lt;br&gt;&lt;b&gt;InterviewPoints&lt;/b&gt;" style="html=1;whiteSpace=wrap;" parent="1" vertex="1">
          <mxGeometry x="390" y="1000" width="160" height="50" as="geometry" />
        </mxCell>
        <mxCell id="l6fAtrB58Q827878JFEg-109" style="edgeStyle=orthogonalEdgeStyle;rounded=0;orthogonalLoop=1;jettySize=auto;html=1;dashed=1;exitX=1;exitY=0.5;exitDx=0;exitDy=0;" parent="1" source="l6fAtrB58Q827878JFEg-107" target="l6fAtrB58Q827878JFEg-105" edge="1">
          <mxGeometry relative="1" as="geometry" />
        </mxCell>
        <mxCell id="l6fAtrB58Q827878JFEg-110" style="rounded=0;orthogonalLoop=1;jettySize=auto;html=1;entryX=1;entryY=0.5;entryDx=0;entryDy=0;dashed=1;edgeStyle=orthogonalEdgeStyle;" parent="1" source="l6fAtrB58Q827878JFEg-107" target="l6fAtrB58Q827878JFEg-34" edge="1">
          <mxGeometry relative="1" as="geometry" />
        </mxCell>
        <mxCell id="l6fAtrB58Q827878JFEg-125" style="edgeStyle=orthogonalEdgeStyle;rounded=0;orthogonalLoop=1;jettySize=auto;html=1;dashed=1;" parent="1" source="l6fAtrB58Q827878JFEg-107" edge="1">
          <mxGeometry relative="1" as="geometry">
            <mxPoint x="370" y="830" as="targetPoint" />
            <Array as="points">
              <mxPoint x="370" y="1220" />
              <mxPoint x="370" y="1220" />
            </Array>
          </mxGeometry>
        </mxCell>
        <mxCell id="l6fAtrB58Q827878JFEg-107" value="«Service»&lt;br&gt;&lt;b&gt;InterviewEvaluation&lt;/b&gt;" style="html=1;whiteSpace=wrap;" parent="1" vertex="1">
          <mxGeometry x="290" y="1260" width="160" height="50" as="geometry" />
        </mxCell>
        <mxCell id="l6fAtrB58Q827878JFEg-111" value="RequirementSpecification" style="shape=umlFrame;whiteSpace=wrap;html=1;pointerEvents=0;width=170;height=50;" parent="1" vertex="1">
          <mxGeometry x="520" y="290" width="590" height="280" as="geometry" />
        </mxCell>
        <mxCell id="l6fAtrB58Q827878JFEg-115" style="edgeStyle=orthogonalEdgeStyle;rounded=0;orthogonalLoop=1;jettySize=auto;html=1;entryX=1;entryY=0.5;entryDx=0;entryDy=0;dashed=1;exitX=0.5;exitY=0;exitDx=0;exitDy=0;" parent="1" source="l6fAtrB58Q827878JFEg-114" target="l6fAtrB58Q827878JFEg-35" edge="1">
          <mxGeometry relative="1" as="geometry" />
        </mxCell>
        <mxCell id="l6fAtrB58Q827878JFEg-120" style="edgeStyle=orthogonalEdgeStyle;rounded=0;orthogonalLoop=1;jettySize=auto;html=1;entryX=1;entryY=0.5;entryDx=0;entryDy=0;dashed=1;exitX=0.5;exitY=1;exitDx=0;exitDy=0;" parent="1" source="l6fAtrB58Q827878JFEg-114" target="l6fAtrB58Q827878JFEg-118" edge="1">
          <mxGeometry relative="1" as="geometry" />
        </mxCell>
        <mxCell id="l6fAtrB58Q827878JFEg-127" style="edgeStyle=orthogonalEdgeStyle;rounded=0;orthogonalLoop=1;jettySize=auto;html=1;entryX=0.5;entryY=1;entryDx=0;entryDy=0;dashed=1;" parent="1" source="l6fAtrB58Q827878JFEg-114" target="l6fAtrB58Q827878JFEg-49" edge="1">
          <mxGeometry relative="1" as="geometry" />
        </mxCell>
        <mxCell id="l6fAtrB58Q827878JFEg-114" value="«Service»&lt;br&gt;&lt;b&gt;RequirementEvaluation&lt;/b&gt;" style="html=1;whiteSpace=wrap;" parent="1" vertex="1">
          <mxGeometry x="1220" y="630" width="160" height="50" as="geometry" />
        </mxCell>
        <mxCell id="l6fAtrB58Q827878JFEg-118" value="«Value Object»&lt;br&gt;&lt;b&gt;RequirementResult&lt;/b&gt;" style="html=1;whiteSpace=wrap;" parent="1" vertex="1">
          <mxGeometry x="810" y="990" width="160" height="50" as="geometry" />
        </mxCell>
        <mxCell id="l6fAtrB58Q827878JFEg-122" value="JobOpening" style="shape=umlFrame;whiteSpace=wrap;html=1;pointerEvents=0;width=110;height=40;" parent="1" vertex="1">
          <mxGeometry x="-910" y="350" width="880" height="570" as="geometry" />
        </mxCell>
        <mxCell id="NS87SEjxT8RGoGRDJgCP-1" value="«Value Object»&lt;br&gt;&lt;b&gt;Recrutmentprocess&lt;/b&gt;" style="html=1;whiteSpace=wrap;" parent="1" vertex="1">
          <mxGeometry x="-300" y="770" width="160" height="50" as="geometry" />
        </mxCell>
      </root>
    </mxGraphModel>
  </diagram>
</mxfile>
